<svg viewBox="0 0 500 500" xmlns="http://www.w3.org/2000/svg" xmlns:xlink="http://www.w3.org/1999/xlink">
    <defs>
      <path id="curveBottom" d="M 46,302 a 210,210 0 0,0 400,0"></path>
    </defs>
    <g id="Layer_2" data-name="Layer 2" transform="matrix(0.933313, 0, 0, 0.92237, -13.564483, -15.181907)" style="transform-origin: 263px 263px;">
      <g id="Layer_2-2" data-name="Layer 2">
        <circle id="bg" class="cls-1" cx="263" cy="263" r="258.22" style="fill: rgb(255, 255, 255);"></circle>
        <circle class="cls-2" cx="263" cy="263" r="233" style="fill: none; stroke: rgb(211, 62, 40); stroke-width: 60px;"></circle>
        <path class="cls-3" d="M414.19,267.86a43.39,43.39,0,0,0-19.34-20.25,62.39,62.39,0,0,0-16.58-7.26c4.23-15.48-1.77-27.8-10.19-37-12.46-13.48-25.42-15.44-25.42-15.44a40.52,40.52,0,0,0,3.76-27.63,36.15,36.15,0,0,0-17.58-24.1c-8.56-5.05-19.11-7.54-29.94-9.58-5.2-.94-27.11-4-36.2-16.58-7.32-10.19-7.54-28.54-9.53-34s-9.34-3.18-17.21,2.1c-9.2,6.25-28.27,25.94-35.62,45.75a68,68,0,0,0-3.53,38.38,70.23,70.23,0,0,0-17.16,5.11,4,4,0,0,0-1.35.47c-8.29,3.43-26.06,19.34-27.63,43.79a67.18,67.18,0,0,0,3.23,25.53,69.22,69.22,0,0,0-17.3,7.1,55.08,55.08,0,0,0-17,11.41,59.94,59.94,0,0,0-11.46,22.66,76.21,76.21,0,0,0,5.52,54.62,117.14,117.14,0,0,0,18.62,26.3c23.63,24.29,64.41,33.46,96.7,38.68,39.21,6.47,80.27,4.2,117-11.05,55-22.71,69.68-59.23,71.83-69.54,4.78-22.79-1.08-44.26-3.59-49.43Z" style="fill: rgb(136, 87, 66);"></path>
        <path class="cls-4" d="M327.32,316.93c-4.33,2.21-8.75,4.2-13.2,6q-4.49,1.78-9,3.23c-3,1-6.1,1.85-9.2,2.77A137.56,137.56,0,0,1,262.54,333a138.28,138.28,0,0,1-37.77-5.28l-4-1.21A150.61,150.61,0,0,1,201,318.67l-3.84-1.9a62.78,62.78,0,0,0,35.14,42.3,71,71,0,0,0,30.26,6.57,73.7,73.7,0,0,0,30.64-6.38,60.41,60.41,0,0,0,34.75-42.66Z" style="fill: rgb(53, 34, 11);"></path>
        <path class="cls-1" d="M321.08,309a324.67,324.67,0,0,1-58.54,4.89A330.24,330.24,0,0,1,204,309a5.9,5.9,0,0,0-2.89.15,6,6,0,0,0-2.47,1.49,6.1,6.1,0,0,0-1.49,2.49A6,6,0,0,0,197,316v.69a142.49,142.49,0,0,0,65.54,16.21,132.63,132.63,0,0,0,14.5-.77,136.08,136.08,0,0,0,18.84-3.34,85.07,85.07,0,0,0,9.2-2.77c3-1.13,6.05-2,9-3.23q6.7-2.77,13.2-6l.61-.33.17-.74a6,6,0,0,0-5.14-6.8,5.93,5.93,0,0,0-1.88,0Z" style="fill: rgb(255, 255, 255);"></path>
        <path class="cls-1" d="M307.1,286.54a34.26,34.26,0,1,0-34.26-34.26A34.26,34.26,0,0,0,307.1,286.54Z" style="fill: rgb(255, 255, 255);"></path>
        <path class="cls-4" d="M307.1,268.36a16.08,16.08,0,1,0-15.83-16.08A16,16,0,0,0,307.1,268.36Z" style="fill: rgb(53, 34, 11);"></path>
        <path class="cls-1" d="M218,286.54a34.26,34.26,0,1,0-34.26-34.26A34.26,34.26,0,0,0,218,286.54Z" style="fill: rgb(255, 255, 255);"></path>
        <path class="cls-4" d="M218,268.36a16.08,16.08,0,1,0-15.83-16.08A16,16,0,0,0,218,268.36Z" style="fill: rgb(53, 34, 11);"></path>
      </g>
    </g>
    <g style="transform-origin: 745.487px 245.81px;" transform="matrix(0.882948, -0.469471, 0.469471, 0.882948, -494.28421, 22.451639)">
      <title>header text group</title>
      <path d="M 961.281 238.072 C 961.281 354.784 866.666 449.398 749.954 449.398 C 633.242 449.398 538.628 354.784 538.628 238.072 C 538.628 121.36 633.242 26.746 749.954 26.746 C 866.666 26.746 961.281 121.36 961.281 238.072 Z" style="fill: none; stroke: none; transform-box: fill-box; transform-origin: 50% 50%;" id="path-0" transform="matrix(-0.500001, 0.866025, -0.866025, -0.500001, 0.000023, -0.000008)"></path>
      <text style="fill: white; font-family: Arial, sans-serif; font-size: 40px; font-weight: 700; text-anchor: middle; white-space: pre; transform-box: fill-box; transform-origin: 211.193px 131.533px;" transform="matrix(1, 0, 0, 1, 0, -0.000006)" x="643.667" y="-26.342"><textPath xlink:href="#path-0">HEADER TEXT</textPath></text>
    </g>
    <text style="fill: black; font-family: Arial, sans-serif; font-size: 20.2px; font-weight: 700; white-space: pre; text-anchor: middle;" x="249.532" y="403.6">#hashtag</text>
    <text dy="0" text-anchor="middle" style="font: bold 40px Arial; fill: white; white-space: pre;" transform="matrix(1, 0, 0, 1, 3.218034, 15.294046)">
        <textPath startOffset="50%" xlink:href="#curveBottom">
          <tspan style="dominant-baseline: central; text-anchor: middle;">BOTTOM BO  TEXT</tspan>
        </textPath>
      </text>
  </svg>